<svg width="79" height="29" viewBox="0 0 79 29" fill="none" xmlns="http://www.w3.org/2000/svg">
<path d="M9.75461 1.25483C8.70089 1.25512 7.69043 1.64882 6.94533 2.34939C6.20024 3.04997 5.78153 4.00007 5.78122 4.99082V6.68801H3.97618C3.454 6.6876 2.93686 6.78402 2.45435 6.97173C1.97185 7.15943 1.53345 7.43477 1.16422 7.78195C0.794998 8.12912 0.502206 8.54136 0.302595 8.99504C0.102985 9.44874 0.000475699 9.93499 0.000932214 10.426V14.1606H5.78028V17.555H3.97525C2.92123 17.5549 1.91032 17.9484 1.16484 18.649C0.419366 19.3496 0.000368188 20.2999 0 21.291V27.7455H3.97711C4.49879 27.7453 5.01529 27.6485 5.49717 27.4604C5.97902 27.2725 6.41677 26.9971 6.78546 26.6501C7.15413 26.3031 7.44648 25.8912 7.64583 25.4378C7.84516 24.9844 7.94759 24.4988 7.94725 24.0083H7.95235V21.5425L7.94171 21.5438V5.83398L7.9505 5.83594V4.99147C7.95141 4.54119 8.14173 4.10953 8.47991 3.7907C8.81806 3.47188 9.27664 3.29178 9.75554 3.28971H16.6584V4.99147C16.657 5.44155 16.466 5.87277 16.1273 6.19081C15.7886 6.50885 15.3298 6.68786 14.8511 6.68866H8.7674V8.72573H14.8501C15.9039 8.72578 16.9144 8.33227 17.6596 7.63177C18.4047 6.93126 18.8234 5.98114 18.8235 4.99039V1.25439L9.75461 1.25483ZM5.78122 12.1234H2.16975V10.4262C2.17054 9.97536 2.36108 9.54317 2.69975 9.22405C3.0384 8.90494 3.49765 8.72483 3.97711 8.72312H5.78215L5.78122 12.1234ZM5.78122 24.0102C5.78042 24.4602 5.59005 24.8917 5.25177 25.21C4.91348 25.5285 4.45482 25.708 3.97618 25.7091H2.16882V21.2921C2.16926 20.8417 2.35989 20.41 2.6988 20.0917C3.03773 19.7734 3.49717 19.5947 3.97618 19.5949H5.78122V24.0102ZM8.7674 14.1604H13.3263V15.8593C13.3245 16.3093 13.1334 16.7404 12.7948 17.0584C12.4562 17.3764 11.9975 17.5555 11.5189 17.5565H8.7674V19.5949H11.5198C12.0417 19.5952 12.5585 19.4987 13.0407 19.311C13.5229 19.1234 13.9611 18.8482 14.3301 18.5012C14.6991 18.1543 14.9918 17.7423 15.1913 17.2889C15.3909 16.8355 15.4935 16.3496 15.4932 15.8589H15.4951V12.1229H8.7674V14.1604Z" fill="#6C63FF"/>
<path d="M30.6609 12.5444H28.2117V20.792H25.3821V12.5444H23.8235V11.1807L25.3821 10.4199V9.65918C25.3821 8.47786 25.6728 7.61507 26.2542 7.0708C26.8355 6.52653 27.7664 6.25439 29.0466 6.25439C30.0238 6.25439 30.8928 6.39974 31.6536 6.69043L30.9299 8.76855C30.3609 8.58919 29.8352 8.49951 29.3528 8.49951C28.9508 8.49951 28.6601 8.62012 28.4807 8.86133C28.3014 9.09635 28.2117 9.39941 28.2117 9.77051V10.4199H30.6609V12.5444Z" fill="#2F2E41"/>
<path d="M39.1414 20.792L38.761 19.4653H38.6125C38.3095 19.9478 37.8796 20.3219 37.323 20.5879C36.7664 20.8477 36.1324 20.9775 35.4211 20.9775C34.2027 20.9775 33.2843 20.6528 32.6658 20.0034C32.0473 19.3478 31.738 18.4077 31.738 17.1831V10.4199H34.5676V16.478C34.5676 17.2264 34.7006 17.7892 34.9666 18.1665C35.2325 18.5376 35.6562 18.7231 36.2375 18.7231C37.0292 18.7231 37.6013 18.4603 37.9539 17.9346C38.3064 17.4027 38.4827 16.5244 38.4827 15.2998V10.4199H41.3123V20.792H39.1414Z" fill="#2F2E41"/>
<path d="M51.0173 17.7119C51.0173 18.7757 50.6462 19.5859 49.9041 20.1426C49.1681 20.6992 48.064 20.9775 46.592 20.9775C45.8375 20.9775 45.1943 20.925 44.6624 20.8198C44.1305 20.7209 43.6326 20.5724 43.1687 20.3745V18.0366C43.6944 18.284 44.2851 18.4912 44.9407 18.6582C45.6025 18.8252 46.1838 18.9087 46.6848 18.9087C47.7115 18.9087 48.2249 18.6118 48.2249 18.0181C48.2249 17.7954 48.1568 17.616 48.0208 17.48C47.8847 17.3377 47.6497 17.18 47.3157 17.0068C46.9817 16.8275 46.5364 16.6203 45.9797 16.3853C45.1819 16.0513 44.5943 15.742 44.217 15.4575C43.8459 15.173 43.5738 14.8483 43.4006 14.4834C43.2336 14.1123 43.1501 13.6577 43.1501 13.1196C43.1501 12.1981 43.5058 11.4868 44.217 10.9858C44.9345 10.4787 45.9488 10.2251 47.26 10.2251C48.5094 10.2251 49.7247 10.4972 50.906 11.0415L50.0525 13.0825C49.533 12.8599 49.0474 12.6774 48.5959 12.5352C48.1444 12.3929 47.6837 12.3218 47.2136 12.3218C46.3787 12.3218 45.9612 12.5475 45.9612 12.999C45.9612 13.2526 46.0942 13.4722 46.3601 13.6577C46.6322 13.8433 47.2229 14.1185 48.1321 14.4834C48.9423 14.8112 49.5361 15.1174 49.9133 15.4019C50.2906 15.6864 50.5689 16.0142 50.7483 16.3853C50.9277 16.7563 51.0173 17.1986 51.0173 17.7119Z" fill="#2F2E41"/>
<path d="M57.0208 12.2383C56.4208 12.2383 55.9508 12.43 55.6106 12.8135C55.2704 13.1908 55.0756 13.7288 55.0261 14.4277H58.9968C58.9845 13.7288 58.802 13.1908 58.4495 12.8135C58.0969 12.43 57.6207 12.2383 57.0208 12.2383ZM57.4197 20.9775C55.7498 20.9775 54.4447 20.5168 53.5046 19.5952C52.5645 18.6737 52.0945 17.3687 52.0945 15.6802C52.0945 13.9422 52.5274 12.6001 53.3933 11.6538C54.2654 10.7013 55.4683 10.2251 57.0022 10.2251C58.468 10.2251 59.6091 10.6426 60.4255 11.4775C61.2419 12.3125 61.6501 13.466 61.6501 14.938V16.311H54.9612C54.9921 17.1151 55.2302 17.7428 55.6755 18.1943C56.1208 18.6458 56.7455 18.8716 57.5496 18.8716C58.1742 18.8716 58.7649 18.8066 59.3215 18.6768C59.8782 18.5469 60.4596 18.3397 61.0657 18.0552V20.2446C60.5709 20.492 60.0421 20.6745 59.4792 20.792C58.9164 20.9157 58.2299 20.9775 57.4197 20.9775Z" fill="#2F2E41"/>
<path d="M66.2805 20.792H63.4509V6.35645H66.2805V20.792Z" fill="#2F2E41"/>
<path d="M67.2742 10.4199H70.3728L72.3303 16.2554C72.4973 16.7625 72.6117 17.3625 72.6736 18.0552H72.7292C72.7973 17.4181 72.9303 16.8182 73.1282 16.2554L75.0486 10.4199H78.0823L73.6941 22.1187C73.2921 23.201 72.7169 24.0112 71.9685 24.5493C71.2263 25.0874 70.3573 25.3564 69.3616 25.3564C68.873 25.3564 68.3936 25.3039 67.9236 25.1987V22.9536C68.2638 23.034 68.6348 23.0742 69.0369 23.0742C69.5378 23.0742 69.9739 22.9196 70.345 22.6104C70.7222 22.3073 71.016 21.8465 71.2263 21.228L71.3933 20.7178L67.2742 10.4199Z" fill="#2F2E41"/>
</svg>
