<svg width="600" height="498" viewBox="0 0 600 498" fill="none" xmlns="http://www.w3.org/2000/svg">
<g clip-path="url(#clip0_172_3560)">
<path d="M33.1861 159.246C33.1861 179.94 38.1198 196.974 46.6783 211.566C49.503 216.372 52.7095 220.947 56.2673 225.246C87.7294 263.474 146.223 284.397 199.09 318.288C355.145 418.326 372.049 258.025 365.001 159.246C362.158 119.389 346.533 82.8789 321.711 54.9245C316.498 49.0452 310.866 43.5453 304.86 38.4672C276.679 14.6256 240.272 0.198242 199.09 0.198242C128.437 0.198242 68.1012 42.533 44.1789 102.19C36.9059 120.344 33.1754 139.707 33.1861 159.246Z" fill="#9E99FF"/>
<path d="M163.743 36.043L321.711 54.9244C316.498 49.0452 310.866 43.5452 304.86 38.4671L163.743 36.043Z" fill="#CFCFDE"/>
<path d="M46.6784 211.566C49.5031 216.372 52.7096 220.947 56.2674 225.246L191.58 209.077L46.6784 211.566Z" fill="#CFCFDE"/>
<path d="M38.6589 118.594L267.985 89.0452L44.179 102.19C42.0295 107.55 40.1866 113.027 38.6589 118.594Z" fill="#CFCFDE"/>
<path d="M349.445 42.5637C349.445 42.9697 349.457 43.3698 349.492 43.764C349.672 46.2074 350.397 48.5804 351.616 50.71C352.836 52.8396 354.518 54.6722 356.54 56.0743C358.562 57.4765 360.874 58.4129 363.307 58.8153C365.739 59.2177 368.232 59.076 370.602 58.4006C372.973 57.7251 375.162 56.5329 377.01 54.9107C378.858 53.2885 380.319 51.2772 381.285 49.0234C382.252 46.7695 382.701 44.3298 382.598 41.882C382.496 39.4341 381.845 37.0398 380.694 34.8734C380.337 34.1945 379.929 33.5434 379.473 32.9258C377.49 30.1932 374.711 28.1305 371.511 27.016C368.311 25.9016 364.844 25.7889 361.577 26.6931C358.31 27.5974 355.401 29.4752 353.243 32.0732C351.084 34.6712 349.779 37.8644 349.504 41.2221C349.463 41.6634 349.445 42.1106 349.445 42.5637Z" fill="#9E99FF"/>
<path d="M349.445 42.5636C349.445 42.9696 349.457 43.3697 349.492 43.764L374.321 40.7985L349.504 41.2221C349.463 41.6634 349.445 42.1106 349.445 42.5636Z" fill="#CFCFDE"/>
<path d="M355.367 50.8658L378.336 53.6136C378.988 52.8916 379.575 52.1139 380.089 51.2895L355.367 50.8658Z" fill="#CFCFDE"/>
<path d="M361.883 32.6257L380.693 34.8734C380.337 34.1945 379.929 33.5434 379.473 32.9258L361.883 32.6257Z" fill="#CFCFDE"/>
<path d="M122.166 339.187C122.358 339.545 122.557 339.893 122.774 340.225C124.086 342.3 125.847 344.058 127.929 345.371C130.01 346.684 132.361 347.52 134.809 347.817C137.257 348.113 139.741 347.864 142.079 347.086C144.418 346.309 146.553 345.023 148.328 343.323C150.103 341.622 151.474 339.549 152.341 337.256C153.208 334.962 153.549 332.506 153.34 330.064C153.13 327.623 152.375 325.26 151.13 323.145C149.884 321.03 148.18 319.219 146.14 317.841C145.505 317.408 144.837 317.022 144.143 316.689C141.102 315.199 137.674 314.671 134.321 315.177C130.968 315.683 127.853 317.198 125.394 319.518C122.935 321.838 121.252 324.851 120.571 328.152C119.89 331.452 120.244 334.88 121.585 337.974C121.757 338.383 121.952 338.786 122.166 339.187Z" fill="#9E99FF"/>
<path d="M122.166 339.186C122.358 339.545 122.557 339.893 122.775 340.225L143.307 326.043L121.586 337.974C121.757 338.383 121.953 338.786 122.166 339.186Z" fill="#CFCFDE"/>
<path d="M131.316 343.762L152.901 335.492C153.136 334.551 153.287 333.591 153.353 332.623L131.316 343.762Z" fill="#CFCFDE"/>
<path d="M128.464 324.616L146.14 317.841C145.505 317.407 144.837 317.022 144.143 316.689L128.464 324.616Z" fill="#CFCFDE"/>
<path d="M4.70926 55.1849C4.42393 55.4755 4.15125 55.7702 3.89965 56.0771C2.31075 57.9507 1.16251 60.1529 0.538631 62.5232C-0.0852432 64.8934 -0.169067 67.3721 0.293247 69.7786C0.755558 72.1851 1.75242 74.4589 3.21113 76.4343C4.66985 78.4097 6.55371 80.037 8.72553 81.1977C10.8974 82.3584 13.3024 83.0232 15.7656 83.1437C18.2288 83.2643 20.688 82.8375 22.9641 81.8945C25.2402 80.9515 27.2761 79.516 28.9231 77.6925C30.5702 75.8691 31.7871 73.7037 32.4853 71.354C32.7072 70.6206 32.8728 69.8716 32.9806 69.1134C33.4814 65.7815 32.9414 62.3772 31.4337 59.3597C29.926 56.3421 27.523 53.8565 24.5488 52.2381C21.5747 50.6197 18.1725 49.9464 14.8011 50.3089C11.4296 50.6714 8.25125 52.0524 5.69457 54.2655C5.35474 54.5527 5.02769 54.8605 4.70926 55.1849Z" fill="#9E99FF"/>
<path d="M4.70921 55.1848C4.42388 55.4755 4.1512 55.7702 3.8996 56.077L23.7585 71.1754L5.69452 54.2655C5.35467 54.5527 5.02764 54.8605 4.70921 55.1848Z" fill="#CFCFDE"/>
<path d="M3.11456 65.2366L17.6268 83.1351C18.601 83.0704 19.5675 82.9205 20.5153 82.6872L3.11456 65.2366Z" fill="#CFCFDE"/>
<path d="M20.5981 56.6974L32.4853 71.354C32.7071 70.6206 32.8727 69.8716 32.9806 69.1134L20.5981 56.6974Z" fill="#CFCFDE"/>
<path d="M315.834 358.795C315.834 358.795 279.441 360.301 279.441 369.34C279.441 378.378 320.383 369.34 320.383 369.34L315.834 358.795Z" fill="#9E616A"/>
<path d="M370.424 497.385L438.661 492.866L441.694 456.712L456.858 488.347L523.579 479.308C522.062 422.064 497.8 366.327 496.284 358.795C494.767 351.263 491.143 320.14 491.143 320.14C484.517 306.176 449.792 304.865 422.572 306.131C411.29 306.643 401.282 307.607 395.111 308.3C391.032 308.752 388.621 309.083 388.621 309.083C377.748 320.216 370.742 335.385 366.436 352.332C350.908 413.387 370.424 497.385 370.424 497.385Z" fill="#2F2E41"/>
<path d="M446.243 147.897C425.306 147.897 408.334 131.035 408.334 110.236C408.334 89.4368 425.306 72.5757 446.243 72.5757C467.18 72.5757 484.153 89.4368 484.153 110.236C484.153 131.035 467.18 147.897 446.243 147.897Z" fill="#9E616A"/>
<path d="M472.022 119.275C472.022 119.275 482.636 165.974 499.317 179.531C515.997 193.089 434.112 179.531 434.112 179.531C434.112 179.531 452.309 149.403 438.661 135.845C425.014 122.287 472.022 119.275 472.022 119.275Z" fill="#9E616A"/>
<path d="M394.686 312.096L419.843 314.868L490.218 322.641C490.218 322.641 490.552 321.752 491.143 320.14C496.253 306.296 520.864 238.929 523.579 218.698C526.611 196.102 494.767 168.986 494.767 168.986C494.767 168.986 464.44 162.961 455.342 162.961C446.243 162.961 409.85 176.518 409.85 176.518L396.279 297.8L395.111 308.3L394.686 312.096Z" fill="#CFCFDE"/>
<path opacity="0.15" d="M366.436 352.332L417.432 322.641C417.432 322.641 418.327 319.748 419.843 314.868C420.601 312.427 421.526 309.475 422.572 306.131C428.456 287.361 438.328 256.389 446.243 233.762C458.374 199.115 399.235 295.525 399.235 295.525L396.278 297.8L395.111 308.3C391.032 308.752 388.621 309.083 388.621 309.083C377.748 320.216 370.742 335.385 366.436 352.332Z" fill="#2F2E41"/>
<path d="M434.112 179.531C434.112 179.531 449.276 199.115 437.145 233.762C425.014 268.41 408.334 322.641 408.334 322.641L320.383 373.859L308.252 358.795L390.137 295.525C390.137 295.525 393.17 181.038 408.334 176.518C423.497 171.999 434.112 179.531 434.112 179.531Z" fill="#CFCFDE"/>
<path d="M509.173 311.343C509.173 311.343 487.944 355.029 478.845 350.51C469.747 345.99 501.591 300.798 501.591 300.798L509.173 311.343Z" fill="#9E616A"/>
<path d="M511.448 191.583L591.816 257.865C591.816 257.865 622.143 278.955 566.037 294.019C509.931 309.083 505.382 318.122 505.382 318.122C505.382 318.122 499.317 298.538 491.735 301.551L556.939 269.916L503.866 238.282L511.448 191.583Z" fill="#CFCFDE"/>
<path d="M543.748 141.147C539.53 139.071 530.216 134.883 522.282 129.838C522.838 113.423 520.804 98.5219 514.848 90.6233C511.504 83.0822 504.484 75.5322 498.985 69.5864C485.483 54.9853 455.625 46.8351 450.329 54.1303C410.276 54.9159 406.059 86.1053 406.059 86.1053C406.267 99.151 419.916 99.5638 431.872 99.0884C430.801 107.995 433.654 117.249 441.917 121.353C457.716 129.201 462.456 139.403 454.556 146.466C446.657 153.529 432.437 172.364 451.396 177.073C470.356 181.782 472.726 191.2 467.196 195.124C461.666 199.048 479.836 188.06 479.836 188.06C479.836 188.06 482.996 206.896 499.586 202.187C501.072 201.765 502.558 200.683 504.019 199.066C508.5 203.957 512.497 206.849 515.509 206.865C532.763 206.955 530.694 187.972 530.694 187.972C530.694 187.972 551.173 193.685 544.782 191.388C538.392 189.09 538.119 179.387 555.098 169.774C572.078 160.161 553.273 145.832 543.748 141.147Z" fill="#2F2E41"/>
<path d="M332.061 190.355L332.336 190.319L331.665 192.853C331.031 196.388 330.11 199.866 328.911 203.254L309.231 277.572C308.603 279.944 307.292 282.082 305.458 283.724C303.624 285.366 301.347 286.441 298.907 286.816L258.774 292.984C256.179 293.382 253.524 292.971 251.174 291.806C248.825 290.641 246.897 288.78 245.658 286.481L207.518 215.711C206.327 213.751 205.238 211.73 204.256 209.658L202.961 207.255L203.163 207.228C199.12 197.727 197.34 187.427 197.963 177.13C198.585 166.833 201.593 156.819 206.752 147.866C211.91 138.914 219.08 131.267 227.703 125.519C236.325 119.772 246.168 116.081 256.462 114.733C266.756 113.386 277.225 114.418 287.052 117.75C296.879 121.082 305.798 126.624 313.115 133.943C320.432 141.262 325.949 150.161 329.235 159.946C332.521 169.731 333.488 180.138 332.061 190.355H332.061Z" fill="#2F2E41"/>
<path d="M256.312 297.839C257.018 297.839 257.724 297.785 258.423 297.678L300.373 291.23C303.037 290.821 305.523 289.648 307.526 287.855C309.529 286.062 310.961 283.726 311.646 281.136L332.217 203.453C333.474 199.897 334.44 196.246 335.106 192.535L335.626 189.137C337.026 178.28 335.866 167.248 332.238 156.913C328.61 146.577 322.614 137.221 314.722 129.583C306.83 121.944 297.26 116.233 286.765 112.899C276.27 109.565 265.139 108.7 254.251 110.373L254.432 111.536C265.202 109.887 276.211 110.761 286.581 114.089C296.95 117.417 306.394 123.107 314.157 130.704C321.92 138.301 327.789 147.595 331.295 157.845C334.801 168.095 335.847 179.017 334.35 189.74L333.95 192.282C333.289 195.962 332.331 199.582 331.085 203.109L310.501 280.837C309.874 283.205 308.564 285.341 306.733 286.981C304.902 288.62 302.628 289.693 300.192 290.067L258.242 296.515C255.651 296.91 253 296.498 250.654 295.335C248.309 294.172 246.383 292.316 245.144 290.021L244.099 290.576C245.284 292.77 247.046 294.604 249.196 295.882C251.347 297.161 253.805 297.837 256.312 297.839Z" fill="#CFCFDE"/>
<path d="M245.67 207.247L271.195 276.483L269.757 277.007L244.232 207.771L245.67 207.247Z" fill="#CFCFDE"/>
<path d="M287.347 200.841L288.878 200.908L285.62 274.57L284.089 274.504L287.347 200.841Z" fill="#CFCFDE"/>
<path d="M259.858 333.057L313.612 324.796C314.012 324.732 314.37 324.514 314.608 324.189C314.846 323.864 314.945 323.458 314.883 323.06C314.821 322.663 314.604 322.306 314.278 322.068C313.952 321.829 313.544 321.728 313.144 321.788L259.39 330.049C259.19 330.078 258.998 330.147 258.825 330.25C258.652 330.354 258.501 330.49 258.381 330.652C258.261 330.813 258.175 330.997 258.127 331.192C258.079 331.386 258.07 331.589 258.101 331.787C258.132 331.985 258.202 332.176 258.307 332.347C258.412 332.518 258.55 332.667 258.713 332.785C258.877 332.903 259.062 332.988 259.258 333.035C259.455 333.081 259.659 333.089 259.858 333.057Z" fill="#2F2E41"/>
<path d="M258.48 321.717L312.234 313.456C312.433 313.426 312.625 313.358 312.798 313.255C312.971 313.151 313.122 313.015 313.242 312.853C313.362 312.692 313.448 312.508 313.496 312.313C313.544 312.118 313.553 311.916 313.522 311.718C313.492 311.519 313.421 311.329 313.316 311.158C313.211 310.987 313.073 310.838 312.91 310.72C312.746 310.601 312.561 310.517 312.365 310.47C312.168 310.423 311.965 310.416 311.765 310.448L258.011 318.709C257.811 318.738 257.619 318.807 257.446 318.91C257.273 319.014 257.123 319.15 257.003 319.312C256.883 319.473 256.797 319.657 256.748 319.852C256.7 320.046 256.691 320.249 256.722 320.447C256.753 320.645 256.823 320.836 256.928 321.007C257.034 321.178 257.172 321.327 257.335 321.445C257.498 321.563 257.684 321.648 257.88 321.695C258.076 321.741 258.28 321.749 258.48 321.717Z" fill="#2F2E41"/>
<path d="M257.101 310.377L310.855 302.116C311.255 302.052 311.613 301.834 311.851 301.509C312.089 301.183 312.188 300.778 312.127 300.38C312.065 299.983 311.847 299.626 311.521 299.387C311.195 299.149 310.787 299.048 310.387 299.107L256.633 307.369C256.233 307.432 255.875 307.651 255.637 307.976C255.399 308.301 255.3 308.707 255.362 309.104C255.424 309.502 255.641 309.859 255.967 310.097C256.293 310.336 256.701 310.436 257.101 310.377H257.101Z" fill="#2F2E41"/>
<path d="M288.406 339.656C277.743 341.295 268.18 336.72 267.046 329.438L305.658 323.503C306.793 330.786 299.068 338.017 288.406 339.656Z" fill="#2F2E41"/>
<path d="M269.084 192.661C271.377 192.308 273.275 190.507 274.315 189.3C274.656 188.905 274.988 188.494 275.321 188.083C276.533 186.584 277.677 185.17 279.27 184.432C282.786 182.802 286.929 185.078 290.516 187.521L291.383 186.265C287.439 183.579 282.84 181.098 278.622 183.052C276.706 183.94 275.394 185.561 274.127 187.129C273.804 187.528 273.482 187.926 273.151 188.31C272.07 189.565 269.912 191.599 267.601 191.13C266.626 190.848 265.721 190.371 264.938 189.729C264.342 189.288 263.712 188.893 263.054 188.548C261.719 187.913 260.225 187.683 258.759 187.889C257.294 188.095 255.922 188.726 254.817 189.705C254.423 190.076 254.05 190.468 253.699 190.879C253.01 191.66 252.359 192.396 251.512 192.664C250.26 193.062 248.936 192.351 247.534 191.599C246.088 190.824 244.593 190.022 242.896 190.22C242.841 190.227 242.786 190.234 242.731 190.242C239.713 190.706 238.322 194.022 237.534 196.497L238.996 196.955C240.065 193.591 241.368 191.918 243.076 191.732C244.291 191.59 245.513 192.245 246.806 192.939C248.428 193.809 250.106 194.708 251.977 194.114C253.23 193.718 254.054 192.786 254.851 191.883C255.165 191.514 255.499 191.162 255.851 190.828C256.731 190.062 257.817 189.568 258.975 189.405C260.133 189.243 261.314 189.419 262.374 189.912C262.96 190.222 263.522 190.576 264.054 190.972C265.004 191.742 266.108 192.304 267.293 192.621C267.883 192.74 268.489 192.754 269.084 192.661Z" fill="#CFCFDE"/>
</g>
<defs>
<clipPath id="clip0_172_3560">
<rect width="600" height="497.187" fill="white" transform="matrix(-1 0 0 1 600 0.198242)"/>
</clipPath>
</defs>
</svg>
