<svg width="32" height="32" viewBox="0 0 32 32" fill="none" xmlns="http://www.w3.org/2000/svg">
<rect width="32" height="32" rx="1" fill="white"/>
<path fill-rule="evenodd" clip-rule="evenodd" d="M20.0153 15.7922C20.2812 15.1349 19.7974 14.4173 19.0883 14.4173H18.9047C18.3525 14.4173 17.9047 13.9696 17.9047 13.4173V12.3074C17.9047 11.7251 18.3826 11.7799 18.9714 11.7799H19.0381C19.5904 11.7799 20.0381 11.3322 20.0381 10.7799V10.1426C20.0381 9.59029 19.5904 9.14258 19.0381 9.14258H17.9047C17.0561 9.14258 16.2421 9.47602 15.642 10.0695C15.0419 10.6631 14.7047 11.468 14.7047 12.3074V13.4173C14.7047 13.9696 14.257 14.4173 13.7047 14.4173H13.5714C13.0191 14.4173 12.5714 14.865 12.5714 15.4173V16.0547C12.5714 16.6069 13.0191 17.0547 13.5714 17.0547H13.7047C14.257 17.0547 14.7047 17.5024 14.7047 18.0547V21.8569C14.7047 22.4091 15.1525 22.8569 15.7047 22.8569H16.9047C17.457 22.8569 17.9047 22.4091 17.9047 21.8569V18.0103C17.9047 17.4825 18.3326 17.0547 18.8604 17.0547V17.0547C19.2498 17.0547 19.6003 16.8184 19.7463 16.4573L20.0153 15.7922Z" fill="#9893A3"/>
</svg>
