<svg width="32" height="32" viewBox="0 0 32 32" fill="none" xmlns="http://www.w3.org/2000/svg">
<rect width="32" height="32" rx="1" fill="white"/>
<g clip-path="url(#clip0_172_3413)">
<path d="M24.2415 11.1897C23.8094 11.8323 23.2794 12.3801 22.6513 12.8332C22.6575 12.9546 22.6606 13.092 22.6606 13.2451C22.6606 14.096 22.5365 14.948 22.2884 15.8009C22.0403 16.6539 21.6613 17.4703 21.1514 18.2503C20.6415 19.0302 20.0342 19.7211 19.3293 20.3231C18.6245 20.925 17.7772 21.405 16.7876 21.763C15.7979 22.121 14.7372 22.3 13.6056 22.3C11.8395 22.3 10.213 21.8232 8.72632 20.8696C8.9902 20.8989 9.24327 20.9136 9.48556 20.9136C10.961 20.9136 12.2788 20.4592 13.439 19.5503C12.7511 19.5376 12.135 19.3259 11.5907 18.9149C11.0464 18.504 10.6719 17.9789 10.4671 17.3397C10.6695 17.3783 10.8693 17.3975 11.0665 17.3975C11.3504 17.3975 11.6297 17.3605 11.9044 17.2865C11.1703 17.1395 10.5612 16.7738 10.0773 16.1895C9.59336 15.6052 9.3514 14.9309 9.3514 14.1664V14.127C9.80203 14.3765 10.2827 14.5092 10.7934 14.5252C10.3585 14.2352 10.0137 13.8571 9.75895 13.3909C9.5042 12.9247 9.37683 12.4201 9.37683 11.8772C9.37683 11.3047 9.5203 10.7715 9.80724 10.2778C10.6056 11.2575 11.573 12.0406 12.7095 12.6269C13.8459 13.2133 15.0651 13.5389 16.3671 13.6038C16.3115 13.3724 16.2837 13.1309 16.2836 12.8794C16.2836 12.0009 16.5945 11.2509 17.2162 10.6293C17.8379 10.0076 18.5879 9.69678 19.4664 9.69678C20.386 9.69678 21.1607 10.0316 21.7903 10.7014C22.5097 10.5589 23.1832 10.3012 23.811 9.9282C23.5691 10.6893 23.1031 11.2765 22.4129 11.6897C23.0473 11.6143 23.6568 11.4476 24.2414 11.1897H24.2415Z" fill="#9893A3"/>
</g>
<defs>
<clipPath id="clip0_172_3413">
<rect x="8.72729" y="9.69678" width="15.5152" height="12.6032" rx="1" fill="white"/>
</clipPath>
</defs>
</svg>
