<svg width="32" height="32" viewBox="0 0 32 32" fill="none" xmlns="http://www.w3.org/2000/svg">
<rect width="32" height="32" rx="1" fill="white"/>
<path d="M13.0716 14.0743H10.468V21.6988H13.0716V14.0743Z" fill="#9893A3"/>
<path d="M12.6339 10.5161C12.3858 10.3658 12.0942 10.2856 11.7959 10.2856C11.5968 10.2856 11.3997 10.3214 11.216 10.3907C11.0322 10.4601 10.8653 10.5617 10.725 10.6898C10.5847 10.8179 10.4736 10.97 10.3982 11.1372C10.3229 11.3043 10.2846 11.4834 10.2858 11.6641C10.2875 11.9348 10.3775 12.199 10.5445 12.4233C10.7115 12.6477 10.9479 12.8221 11.224 12.9246C11.5 13.0271 11.8034 13.0532 12.0957 12.9994C12.3881 12.9456 12.6564 12.8145 12.8667 12.6225C13.077 12.4305 13.22 12.1863 13.2775 11.9207C13.3351 11.655 13.3047 11.3799 13.1901 11.1299C13.0756 10.8799 12.882 10.6663 12.6339 10.5161Z" fill="#9893A3"/>
<path d="M17.2508 14.0739H14.7427L14.7341 21.7142H17.3376V17.9413C17.3376 16.9489 17.5459 15.9879 18.8998 15.9879C20.2536 15.9879 20.2536 17.13 20.2536 18.0122V21.6985H22.8572V17.516C22.8572 15.4602 22.3278 13.8849 19.7242 13.8849C19.228 13.8672 18.7358 13.9722 18.3002 14.1886C17.8646 14.405 17.5019 14.7247 17.2508 15.1136V14.0739Z" fill="#9893A3"/>
</svg>
